<svg width="512" height="512" viewBox="0 0 512 512" fill="none" xmlns="http://www.w3.org/2000/svg">
  <circle cx="256" cy="256" r="256" fill="#15803D"/>
  <path d="M256 128C200 128 160 160 160 208C160 240 184 256 216 264L296 284C328 292 352 308 352 340C352 388 312 420 256 420C200 420 160 388 160 340H208C208 364 224 380 256 380C288 380 304 364 304 340C304 316 288 304 256 296L176 276C144 268 120 252 120 220C120 172 160 140 216 140H216C216 128 256 128 256 128Z" fill="#FACC15"/>
  <path d="M256 140C216 140 184 164 184 204H232C232 188 244 180 256 180C268 180 280 188 280 204C280 220 268 228 240 236L160 256C128 264 104 288 104 324C104 372 144 404 200 404C256 404 296 372 296 324H248C248 348 232 364 200 364C168 364 152 348 152 324C152 300 168 288 200 280L280 260C312 252 336 228 336 192C336 144 296 112 240 112L256 140Z" fill="#FACC15" opacity="0.1"/>
  <text x="256" y="320" font-family="Arial" font-size="280" font-weight="bold" fill="#FACC15" text-anchor="middle" dominant-baseline="middle">S</text>
</svg>
